<svg width="346" height="96" viewBox="0 0 346 96" xmlns="http://www.w3.org/2000/svg">
  <defs>
    <linearGradient id="bgPink" x1="0%" y1="0%" x2="100%" y2="100%">
      <stop offset="0%" stop-color="#E91E63"/>
      <stop offset="55%" stop-color="#C2185B"/>
      <stop offset="100%" stop-color="#880E4F"/>
    </linearGradient>
    <linearGradient id="bolt" x1="50%" y1="0%" x2="50%" y2="100%">
      <stop offset="0%" stop-color="#FFD54F"/>
      <stop offset="50%" stop-color="#FFB300"/>
      <stop offset="100%" stop-color="#FF6F00"/>
    </linearGradient>
    <radialGradient id="glow" cx="50%" cy="50%" r="50%">
      <stop offset="0%" stop-color="#FFC107" stop-opacity="0.5"/>
      <stop offset="100%" stop-color="#FFC107" stop-opacity="0"/>
    </radialGradient>
    <symbol id="ic-google" viewBox="0 0 24 24"><path d="M22.56 12.25c0-.78-.07-1.53-.2-2.25H12v4.26h5.92a5.06 5.06 0 01-2.2 3.32v2.77h3.57c2.08-1.92 3.28-4.74 3.28-8.1z" fill="#4285F4"/><path d="M12 23c2.97 0 5.46-.98 7.28-2.66l-3.57-2.77c-.98.66-2.23 1.06-3.71 1.06-2.86 0-5.29-1.93-6.16-4.53H2.18v2.84C3.99 20.53 7.7 23 12 23z" fill="#34A853"/><path d="M5.84 14.09c-.22-.66-.35-1.36-.35-2.09s.13-1.43.35-2.09V7.07H2.18C1.43 8.55 1 10.22 1 12s.43 3.45 1.18 4.93l2.85-2.22.81-.62z" fill="#FBBC05"/><path d="M12 5.38c1.62 0 3.06.56 4.21 1.64l3.15-3.15C17.45 2.09 14.97 1 12 1 7.7 1 3.99 3.47 2.18 7.07l3.66 2.84c.87-2.6 3.3-4.53 6.16-4.53z" fill="#EA4335"/></symbol>
    <symbol id="ic-kakao" viewBox="0 0 24 24"><path d="M12 3C6.48 3 2 6.36 2 10.44c0 2.62 1.75 4.93 4.38 6.24l-1.12 4.16c-.1.36.32.65.64.44l4.83-3.2c.42.04.84.06 1.27.06 5.52 0 10-3.36 10-7.7S17.52 3 12 3z" fill="#3C1E1E"/></symbol>
    <symbol id="ic-naver" viewBox="0 0 24 24"><path d="M16.27 12.97L7.48 3H3v18h4.73V11.03L16.52 21H21V3h-4.73z" fill="#fff"/></symbol>
    <symbol id="ic-apple" viewBox="0 0 24 24"><path d="M17.05 20.28c-.98.95-2.05.88-3.08.4-1.09-.5-2.08-.51-3.23 0-1.44.64-2.2.45-3.06-.4C3.79 16.17 4.36 9.04 8.73 8.78c1.23.06 2.1.72 2.82.76.98-.2 1.92-.77 3.01-.7 1.27.1 2.23.6 2.84 1.53-2.6 1.56-1.98 4.99.47 5.95-.56 1.47-1.28 2.92-2.82 4.96zM12.03 8.7c-.15-2.34 1.84-4.37 4.03-4.57.29 2.62-2.34 4.6-4.03 4.57z" fill="#fff"/></symbol>
    <symbol id="ic-discord" viewBox="0 0 24 24"><path d="M20.32 4.37a19.8 19.8 0 00-4.89-1.52.07.07 0 00-.08.04c-.21.38-.44.87-.61 1.25a18.27 18.27 0 00-5.49 0 12.64 12.64 0 00-.62-1.25.07.07 0 00-.08-.04 19.74 19.74 0 00-4.89 1.52.07.07 0 00-.03.03C1.27 8.34.59 12.18.92 15.97a.08.08 0 00.03.05 19.9 19.9 0 005.99 3.03.07.07 0 00.08-.03c.46-.63.87-1.3 1.22-2a.08.08 0 00-.04-.1 13.1 13.1 0 01-1.87-.9.08.08 0 01-.01-.12c.13-.09.25-.19.37-.29a.07.07 0 01.07-.01c3.93 1.8 8.18 1.8 12.07 0a.07.07 0 01.07.01c.12.1.25.2.37.29a.08.08 0 01-.01.12c-.6.35-1.22.65-1.87.9a.08.08 0 00-.04.1c.36.7.77 1.37 1.22 2a.07.07 0 00.08.03 19.83 19.83 0 006-3.03.08.08 0 00.03-.05c.39-4.05-.65-7.56-2.76-10.67a.06.06 0 00-.03-.03zM8.02 13.64c-1.18 0-2.16-1.08-2.16-2.42 0-1.33.96-2.42 2.16-2.42 1.21 0 2.18 1.1 2.16 2.42 0 1.34-.96 2.42-2.16 2.42zm7.97 0c-1.18 0-2.16-1.08-2.16-2.42 0-1.33.96-2.42 2.16-2.42 1.21 0 2.18 1.1 2.16 2.42 0 1.34-.95 2.42-2.16 2.42z" fill="#fff"/></symbol>
    <symbol id="ic-telegram" viewBox="0 0 24 24"><path d="M9.78 18.65l.28-4.23 7.68-6.92c.34-.31-.07-.46-.52-.19L7.74 13.3 3.64 12c-.88-.25-.89-.86.2-1.3l15.97-6.16c.73-.33 1.43.18 1.15 1.3l-2.72 12.81c-.19.91-.74 1.13-1.5.71L12.6 16.3l-1.99 1.93c-.23.23-.42.42-.83.42z" fill="#fff"/></symbol>
  </defs>

  <rect width="346" height="96" fill="url(#bgPink)"/>
  <g fill="#fff"><circle cx="320" cy="14" r="1" opacity="0.45"/><circle cx="14" cy="82" r="1" opacity="0.4"/></g>

  <ellipse cx="50" cy="50" fill="url(#glow)"/>
  <path d="M 58,16 L 34,52 L 50,52 L 42,82 L 68,44 L 52,44 L 58,16 Z"
        fill="url(#bolt)" stroke="#FFE082" stroke-width="0.8" stroke-linejoin="round" stroke-linecap="round"/>

  <text x="100" y="32" font-family="Pretendard, 'Apple SD Gothic Neo', sans-serif"
        font-size="15" font-weight="900" fill="#FFD93D" letter-spacing="-0.5">번개가입</text>

  <text x="100" y="58" font-family="Pretendard, 'Apple SD Gothic Neo', sans-serif"
        font-size="19" font-weight="900" fill="#FFFFFF" letter-spacing="-1">소셜 원클릭 회원가입</text>

  <g transform="translate(100, 70)">
    <circle cx="8" cy="8" r="8" fill="#fff"/><use href="#ic-google" x="2" y="2" width="12" height="12"/>
    <circle cx="29" cy="8" r="8" fill="#FEE500"/><use href="#ic-kakao" x="23" y="2" width="12" height="12"/>
    <circle cx="50" cy="8" r="8" fill="#03C75A"/><use href="#ic-naver" x="44" y="2" width="12" height="12"/>
    <circle cx="71" cy="8" r="8" fill="#0a0a0a"/><use href="#ic-apple" x="65" y="2" width="12" height="12"/>
    <circle cx="92" cy="8" r="8" fill="#5865F2"/><use href="#ic-discord" x="86" y="2" width="12" height="12"/>
    <circle cx="113" cy="8" r="8" fill="#0088CC"/><use href="#ic-telegram" x="107" y="2" width="12" height="12"/>
  </g>

  <g transform="translate(258, 36)">
    <rect x="0" y="0" width="78" height="20" rx="10" fill="#fff" opacity="0.95"/>
    <text x="39" y="14" font-family="Pretendard, 'Apple SD Gothic Neo', sans-serif"
          font-size="10" font-weight="800" fill="#880E4F" text-anchor="middle" letter-spacing="-0.3">CAFE24 공식 앱</text>
  </g>
</svg>
