<svg width="18" height="18" viewBox="0 0 18 18" fill="none" xmlns="http://www.w3.org/2000/svg">
<path fill-rule="evenodd" clip-rule="evenodd" d="M5.00001 11H2.00001V16.5H3.09091V18H5.00001C5.5523 18 6.00001 17.5523 6.00001 17V12C6.00001 11.4477 5.5523 11 5.00001 11Z" fill="#2B2B2B"/>
<path d="M9 15C9 14.4477 9.44772 14 10 14H12C12.5523 14 13 14.4477 13 15V18H10C9.44772 18 9 17.5523 9 17V15Z" fill="#2B2B2B"/>
<path fill-rule="evenodd" clip-rule="evenodd" d="M16 9V15C16 15.5523 15.5523 16 15 16H13V18H15C16.6569 18 18 16.6569 18 15V9C18 4.02944 13.9706 0 9 0C4.02944 0 0 4.02944 0 9V15C0 16.6569 1.34315 18 3 18H5.00001L5 16H3C2.44772 16 2 15.5523 2 15V9C2 5.13401 5.13401 2 9 2C12.866 2 16 5.13401 16 9Z" fill="#2B2B2B"/>
</svg>