<svg width="22" height="20" viewBox="0 0 22 20" fill="none" xmlns="http://www.w3.org/2000/svg">
<path fill-rule="evenodd" clip-rule="evenodd" d="M3.64253e-08 10.0004C3.64253e-08 9.32542 0.547208 8.77821 1.22222 8.77821H20.7778C21.4528 8.77821 22 9.32542 22 10.0004C22 10.6755 21.4528 11.2227 20.7778 11.2227H1.22222C0.547208 11.2227 3.64253e-08 10.6755 3.64253e-08 10.0004Z" fill="#616161"/>
<path fill-rule="evenodd" clip-rule="evenodd" d="M0.357981 9.13619C0.835288 8.65889 1.60916 8.65889 2.08646 9.13619L10.642 17.6918C11.1193 18.1691 11.1193 18.9429 10.642 19.4202C10.1647 19.8975 9.39085 19.8975 8.91354 19.4202L0.357981 10.8647C-0.119327 10.3874 -0.119327 9.6135 0.357981 9.13619Z" fill="#616161"/>
<path fill-rule="evenodd" clip-rule="evenodd" d="M10.642 0.580637C11.1193 1.05794 11.1193 1.83181 10.642 2.30912L2.08646 10.8647C1.60916 11.342 0.835288 11.342 0.357981 10.8647C-0.119327 10.3874 -0.119327 9.6135 0.357981 9.13619L8.91354 0.580637C9.39085 0.103329 10.1647 0.103329 10.642 0.580637Z" fill="#616161"/>
</svg>