<svg width="112" height="20" viewBox="0 0 112 20" fill="none" xmlns="http://www.w3.org/2000/svg">
<path d="M90.4815 1.66399C91.3691 2.16473 92.1118 2.88774 92.6368 3.76226C93.1617 4.63678 93.4511 5.63285 93.4764 6.65299C93.4966 8.04556 92.982 9.39269 92.0388 10.416C90.8624 11.4304 89.4226 12.0893 87.8869 12.316C86.7838 12.5033 85.6958 12.7707 84.6314 13.116C83.5443 13.554 82.4292 14.237 82.4292 15.591H93.702V19.291H78.2343V16.124C78.2414 15.0992 78.5082 14.093 79.0097 13.1998C79.5112 12.3065 80.2309 11.5554 81.1014 11.017C82.567 10.0791 84.208 9.45034 85.9242 9.16899C87.4706 8.86899 89.4722 8.70399 89.4722 6.67399C89.4722 4.69499 86.9924 4.074 85.3173 4.165C84.4991 4.1891 83.694 4.37726 82.9496 4.71838C82.2053 5.05949 81.5368 5.54663 80.9836 6.15099L78.2153 3.63499C79.1212 2.65122 80.2187 1.86388 81.4402 1.32158C82.6617 0.779283 83.9812 0.493541 85.3173 0.481996C87.1143 0.393772 88.901 0.802705 90.4815 1.66399Z" fill="black"/>
<path d="M94.8201 11.1871C94.439 11.6153 94.1795 12.138 94.0685 12.7008C93.9576 13.2636 93.9992 13.8459 94.1892 14.3871C94.4109 14.9316 94.8061 15.3873 95.3134 15.6832C95.8206 15.9791 96.4113 16.0986 96.9935 16.0231H104.719V19.2991H108.723V16.0191H112V12.6951H108.726V3.17411C108.711 2.48447 108.432 1.82689 107.947 1.33699C107.462 0.847086 106.808 0.562211 106.12 0.541115C105.484 0.471361 104.84 0.557405 104.244 0.791855C103.648 1.0263 103.118 1.40215 102.699 1.88711L94.8201 11.1871ZM104.719 4.66411V12.6971H97.8959L104.719 4.66411Z" fill="black"/>
<path d="M54.876 8.74802H44.6094V6.60702C44.6094 5.18002 45.1694 4.42903 46.6529 4.42903H55.6067V0.729027H45.9681C42.457 0.729027 40.6072 2.80103 40.6072 5.89502V19.295H44.6104V12.084H54.876V8.74802Z" fill="black"/>
<path d="M77.9202 8.73904C77.6239 6.56973 76.5986 4.54994 74.9974 2.98141C74.0137 2.03855 72.8443 1.28985 71.5561 0.778239C70.268 0.266628 68.8865 0.00216124 67.4909 0C64.7042 0.00554768 62.0339 1.06455 60.0667 2.94428C58.0995 4.82401 56.9965 7.37066 57 10.0246C57.0018 11.7307 57.4632 13.4079 58.34 14.8958C59.2168 16.3837 60.4797 17.6325 62.008 18.5228C63.6625 19.4951 65.5698 20.0068 67.514 19.9999C68.9114 19.9986 70.2946 19.7324 71.5829 19.2169C72.8713 18.7015 74.0391 17.9471 75.0183 16.9976L71.8899 14.392C70.7022 15.4654 69.1305 16.069 67.4931 16.0805C65.7948 16.0707 64.1684 15.4268 62.9632 14.2873C62.3516 13.6912 61.8707 12.9852 61.5485 12.2104H77.7301C78.0072 11.0729 78.0715 9.8978 77.9202 8.73904ZM61.2649 8.73904C61.5251 7.60992 62.1145 6.57362 62.9654 5.74926C63.9476 4.80835 65.2246 4.19734 66.6036 4.00849C67.9825 3.81964 69.3886 4.06321 70.6093 4.70242C71.3974 5.12909 72.0823 5.70906 72.6194 6.40455C73.1565 7.10004 73.5338 7.89547 73.7267 8.73904H61.2649Z" fill="black"/>
<path d="M9.99205 16.089C8.3787 16.089 6.83128 15.4477 5.68953 14.3059C4.54778 13.1641 3.90503 11.6151 3.90238 9.999C3.90503 8.38291 4.54778 6.83392 5.68953 5.69211C6.83128 4.5503 8.3787 3.909 9.99205 3.909C11.531 3.91052 13.0124 4.49494 14.139 5.545L17.086 2.957C16.1585 2.019 15.0545 1.27466 13.8378 0.767078C12.6211 0.259499 11.316 -0.0012268 9.99804 4.33977e-06C8.68604 -0.00104662 7.38669 0.256784 6.17417 0.758774C4.96166 1.26076 3.85973 1.99708 2.93131 2.92568C2.0029 3.85428 1.26617 4.95697 0.763216 6.17079C0.260259 7.38461 0.000917336 8.68578 0 10C0.000917336 11.3142 0.260259 12.6154 0.763216 13.8292C1.26617 15.043 2.0029 16.1457 2.93131 17.0743C3.85973 18.0029 4.96166 18.7392 6.17417 19.2412C7.38669 19.7432 8.68604 20.001 9.99804 20C12.6422 20.0029 15.1792 18.9536 17.0511 17.083L14.3556 14.24C13.7891 14.8253 13.1108 15.2906 12.3612 15.6082C11.6116 15.9258 10.806 16.0893 9.99205 16.089Z" fill="black"/>
<path d="M32.6736 0.740004V2.695C31.9622 1.95961 31.1064 1.37991 30.1602 0.992476C29.2139 0.605041 28.1978 0.418288 27.1759 0.444002C24.6459 0.443472 22.2194 1.44961 20.43 3.24112C18.6406 5.03263 17.6349 7.46276 17.6341 9.997C17.6306 12.505 18.6195 14.9122 20.3841 16.6915C22.1487 18.4707 24.5453 19.477 27.0491 19.49C28.0921 19.5497 29.1355 19.3813 30.107 18.9963C31.0784 18.6114 31.9546 18.0193 32.6746 17.261V19.296H36.6947V0.740004H32.6736ZM27.1629 15.767C25.6273 15.767 24.1545 15.1559 23.0686 14.0682C21.9828 12.9805 21.3727 11.5053 21.3727 9.967C21.3727 8.42874 21.9828 6.95349 23.0686 5.86578C24.1545 4.77807 25.6273 4.167 27.1629 4.167C28.6986 4.167 30.1713 4.77807 31.2572 5.86578C32.3431 6.95349 32.9531 8.42874 32.9531 9.967C32.9531 11.5053 32.3431 12.9805 31.2572 14.0682C30.1713 15.1559 28.6986 15.767 27.1629 15.767Z" fill="black"/>
</svg>
